<svg width="182" height="128" viewBox="0 0 182 128" fill="none" xmlns="http://www.w3.org/2000/svg">
<path d="M99.5 18C99.5 24.9531 92.1562 30.5 83.25 30.5C80.0469 30.5 77 29.7969 74.5 28.5469C72.7812 29.5625 70.4375 30.5 67.625 30.5C67.3125 30.5 67.1562 30.4219 67 30.1875C66.9219 29.9531 67 29.6406 67.1562 29.4844C67.1562 29.4844 68.875 27.6094 69.9688 25.1875C68.0938 23.1562 67 20.7344 67 18C67 11.125 74.2656 5.5 83.25 5.5C92.1562 5.5 99.5 11.125 99.5 18ZM109.031 35.1875C110.047 37.6094 111.766 39.4844 111.766 39.4844C112 39.6406 112 39.9531 111.922 40.1875C111.844 40.4219 111.609 40.5 111.375 40.5C108.484 40.5 106.141 39.5625 104.422 38.5469C101.922 39.7969 98.9531 40.5 95.75 40.5C88.9531 40.5 83.1719 37.375 80.75 32.9219C81.5312 33 82.3906 33 83.25 33C93.5625 33 102 26.2812 102 18C102 17.5312 101.922 16.9844 101.844 16.4375C107.781 18.3125 112 22.8438 112 28C112 30.7344 110.828 33.1562 109.031 35.1875Z" fill="white"/>
<path d="M182 57.8281C182 65.4062 175.828 71.5 168.25 71.5C167.312 71.5 166.453 71.4219 165.672 71.2656L163.797 73.375C163.406 73.7656 162.938 74 162.391 74H159.5V77.125C159.5 78.2188 158.641 79 157.625 79H154.5V82.125C154.5 83.2188 153.641 84 152.625 84H143.875C142.781 84 142 83.2188 142 82.125V76.0312C142 75.5625 142.156 75.0938 142.547 74.7031L155.125 62.125C154.734 60.7188 154.5 59.3125 154.5 57.75C154.5 50.1719 160.594 44.0781 168.172 44C175.828 44 182 50.1719 182 57.8281ZM168.25 54C168.25 56.1094 169.891 57.75 172 57.75C174.031 57.75 175.75 56.1094 175.75 54C175.75 51.9688 174.031 50.25 172 50.25C169.891 50.25 168.25 51.9688 168.25 54Z" fill="#53FC18"/>
<path d="M104.922 109.141C107.969 110.938 110 114.219 110 118.047V121.562C110 123.438 108.359 125 106.484 125H78.4375C76.5625 125 75 123.438 75 121.562V118.047C75 114.141 77.1094 110.781 80.2344 108.984L78.2031 104.297C77.8906 103.438 78.4375 102.5 79.375 102.5H83.8281C82.9688 101.094 82.5 99.375 82.5 97.5C79.375 96.875 77.5 96.0156 77.5 95C77.5 93.9844 79.6094 93.0469 82.9688 92.4219C83.6719 89.9219 85.0781 87.3438 86.0938 86.0156C86.875 85.0781 88.125 84.7656 89.2188 85.3125L91.3281 86.4062C92.0312 86.7188 92.8906 86.7188 93.5938 86.4062L95.7031 85.3125C96.7969 84.7656 98.0469 85.0781 98.8281 86.0156C99.9219 87.3438 101.25 89.9219 102.031 92.4219C105.312 93.0469 107.5 93.9844 107.5 95C107.5 96.0156 105.547 96.875 102.5 97.5C102.5 99.375 101.953 101.094 101.094 102.5H105.625C106.562 102.5 107.109 103.438 106.797 104.219L104.922 109.141ZM88.75 122.5L91.25 113.125L89.375 110L85.4688 107.5L88.75 122.5ZM96.25 122.5L99.4531 107.5L95.625 110L93.75 113.125L96.25 122.5ZM99.4531 99.2188C99.5312 98.9844 100 98.75 100 98.75V97.8906C97.7344 98.2031 95.2344 98.3594 92.5 98.3594C89.7656 98.3594 87.1875 98.2031 85 97.8906V98.75C85 98.75 85.3906 98.9844 85.4688 99.2188C85.7812 100.156 86.0156 101.172 86.7188 101.797C87.3438 102.422 90.3906 103.828 91.7188 99.8438C91.9531 99.2188 92.9688 99.2188 93.2031 99.8438C94.4531 103.594 97.4219 102.578 98.2031 101.797C98.9062 101.172 99.1406 100.156 99.4531 99.2188Z" fill="white"/>
<path d="M22.5 54.625C22.5 55.7188 23.2812 56.5 24.375 56.5H35V82.125C35 83.2188 34.1406 84 33.125 84H6.875C5.78125 84 5 83.2188 5 82.125V69H10.4688L13.125 74.4688C13.3594 74.9375 14.0625 74.9375 14.2969 74.4688L18.75 65.5625L20.4688 69H27.5C28.125 69 28.75 68.4531 28.75 67.75C28.75 67.125 28.125 66.5 27.5 66.5H21.9531L19.2969 61.1094C19.0625 60.6406 18.3594 60.6406 18.125 61.1094L13.75 70.0156L12.1875 66.8906C12.0312 66.6562 11.7969 66.5 11.5625 66.5H0.625C0.234375 66.5 0 66.2656 0 65.875V64.625C0 64.3125 0.234375 64 0.625 64H5V45.875C5 44.8594 5.78125 44 6.875 44H22.5V54.625ZM34.4531 52.2031C34.7656 52.5938 35 53.0625 35 53.5312V54H25V44H25.4688C25.9375 44 26.4062 44.2344 26.7969 44.5469L34.4531 52.2031Z" fill="#53FC18"/>
</svg>
