<svg width="38" height="37" viewBox="0 0 38 37" fill="none" xmlns="http://www.w3.org/2000/svg">
<path d="M36.5078 12.8047C37.1406 13.5078 37.1406 14.5625 36.4375 15.1953L15.625 36.0078C14.9922 36.7109 13.9375 36.7109 13.3047 36.0078L1.49219 24.1953C0.789062 23.5625 0.789062 22.5078 1.49219 21.8047L4.23438 19.0625C4.9375 18.3594 5.99219 18.3594 6.625 19.0625L14.5 26.8672L31.3047 10.0625C31.9375 9.35938 33.0625 9.35938 33.6953 10.0625L36.5078 12.8047ZM13.6562 20.2578L5.78125 12.3828C5.35938 11.9609 5.35938 11.2578 5.78125 10.7656L9.01562 7.60156C9.4375 7.17969 10.1406 7.17969 10.5625 7.60156L14.5 11.5391L25.1172 0.851562C25.5391 0.429688 26.2422 0.429688 26.7344 0.851562L29.8984 4.01562C30.3203 4.50781 30.3203 5.21094 29.8984 5.63281L15.2734 20.2578C14.8516 20.75 14.0781 20.75 13.6562 20.2578Z" fill="#53FC18"/>
</svg>
